<svg width="170" height="141" viewBox="0 0 170 141" fill="none" xmlns="http://www.w3.org/2000/svg">
<path d="M81.2511 5.02561L37.4811 107.596C37.4162 107.748 37.3826 107.912 37.3823 108.078C37.382 108.244 37.415 108.409 37.4793 108.562C37.5437 108.714 37.638 108.853 37.7569 108.969C37.8757 109.084 38.0165 109.175 38.1711 109.236L72.5111 122.786C72.5894 122.812 72.6564 122.864 72.7009 122.934C72.7453 123.003 72.7644 123.086 72.755 123.168C72.7457 123.25 72.7084 123.326 72.6494 123.384C72.5904 123.442 72.5133 123.478 72.4311 123.486L2.00105 133.986C1.9313 133.996 1.86 133.986 1.79556 133.958C1.73112 133.929 1.67623 133.883 1.63734 133.824C1.59846 133.765 1.57721 133.696 1.5761 133.626C1.57498 133.555 1.59405 133.486 1.63106 133.426L45.7211 60.9056L68.9611 22.6456L82.7211 0.135612C82.7541 0.0798626 82.8064 0.0371846 82.8684 0.0155674C82.9304 -0.00604989 82.9977 -0.00512522 83.0578 0.0181652C83.1179 0.0414555 83.1665 0.0855161 83.1948 0.142105C83.223 0.198693 83.2288 0.263931 83.2111 0.325611C82.8644 1.85894 82.2111 3.42561 81.2511 5.02561Z" fill="#BF9F52"/>
<path d="M102.811 27.3956L122.461 59.6056L169.121 136.686C169.144 136.718 169.16 136.754 169.169 136.793C169.178 136.831 169.18 136.871 169.173 136.91C169.167 136.949 169.152 136.986 169.131 137.02C169.111 137.054 169.083 137.083 169.051 137.106C169.019 137.129 168.982 137.145 168.944 137.154C168.905 137.163 168.866 137.164 168.827 137.158C168.788 137.151 168.75 137.137 168.717 137.116C168.683 137.095 168.654 137.068 168.631 137.036L94.461 46.4556C94.1324 46.0525 93.6609 45.7914 93.1436 45.7263C92.6263 45.6612 92.1028 45.7969 91.681 46.1056L62.861 67.0656C62.7767 67.1286 62.6739 67.1622 62.5686 67.161C62.4633 67.1599 62.3613 67.1242 62.2783 67.0594C62.1954 66.9946 62.136 66.9043 62.1093 66.8024C62.0827 66.7005 62.0903 66.5927 62.131 66.4956L86.401 6.8056L87.461 4.4656C87.821 3.67227 88.231 3.64893 88.691 4.3956L102.811 27.3956Z" fill="#BF9F52"/>
<path d="M162.781 139.636C109.131 140.376 55.471 139.636 1.79102 139.826C1.09102 140.126 0.557691 140.166 0.191024 139.946C-0.0823095 139.786 -0.0623119 139.682 0.251021 139.636L121.721 123.566C122.761 123.426 123.214 122.836 123.081 121.796L118.691 88.2756C118.484 86.7089 118.894 86.5289 119.921 87.7356C135.048 105.509 149.378 122.472 162.911 138.626C163.251 139.036 163.071 139.286 162.781 139.636Z" fill="#BF9F52"/>
</svg>
