<svg width="339" height="92" viewBox="0 0 339 92" fill="none" xmlns="http://www.w3.org/2000/svg">
<path d="M47.8418 2.96309L22.1089 63.4381C22.0708 63.5281 22.051 63.6249 22.0509 63.7227C22.0507 63.8206 22.0701 63.9174 22.1079 64.0076C22.1457 64.0978 22.2012 64.1794 22.2711 64.2477C22.3409 64.3159 22.4237 64.3694 22.5146 64.405L42.7034 72.3941C42.7495 72.4095 42.7889 72.4403 42.815 72.4813C42.8412 72.5224 42.8524 72.5712 42.8469 72.6196C42.8414 72.668 42.8194 72.713 42.7848 72.7471C42.7501 72.7812 42.7048 72.8022 42.6564 72.8068L1.24986 78.9976C1.20886 79.0038 1.16694 78.9981 1.12905 78.9811C1.09117 78.9642 1.0589 78.9368 1.03604 78.9021C1.01318 78.8674 1.00068 78.8269 1.00003 78.7853C0.999372 78.7437 1.01058 78.7028 1.03234 78.6674L26.9533 35.9098L40.6164 13.3518L48.706 0.0799565C48.7254 0.0470868 48.7562 0.0219239 48.7927 0.00917847C48.8291 -0.003567 48.8687 -0.00302181 48.904 0.0107101C48.9393 0.0244421 48.9679 0.05042 48.9845 0.0837846C49.0011 0.117149 49.0045 0.155613 48.9941 0.191979C48.7903 1.09603 48.4062 2.01973 47.8418 2.96309Z" fill="#BF9F52"/>
<path d="M60.9551 16.9518L72.5157 36.0397L99.967 81.7179C99.9805 81.7369 99.9902 81.7585 99.9954 81.7813C100.001 81.8042 100.001 81.8278 99.9976 81.8509C99.9938 81.874 99.9855 81.8962 99.9731 81.916C99.9608 81.9359 99.9447 81.9532 99.9258 81.9668C99.9069 81.9804 99.8855 81.9901 99.8628 81.9954C99.8402 82.0007 99.8167 82.0014 99.7937 81.9976C99.7708 81.9937 99.7488 81.9854 99.7291 81.973C99.7094 81.9606 99.6922 81.9444 99.6787 81.9253L56.0425 28.2469C55.8492 28.008 55.5718 27.8533 55.2674 27.8147C54.9631 27.7761 54.6551 27.8566 54.407 28.0395L37.4514 40.4605C37.4018 40.4979 37.3413 40.5177 37.2794 40.5171C37.2174 40.5164 37.1574 40.4952 37.1086 40.4568C37.0598 40.4184 37.0248 40.3649 37.0092 40.3046C36.9935 40.2442 36.998 40.1803 37.0219 40.1227L51.3006 4.74999L51.9242 3.36329C52.136 2.89315 52.3773 2.87932 52.6479 3.3218L60.9551 16.9518Z" fill="#BF9F52"/>
<path d="M96.8127 82.7292C64.9048 83.1749 32.991 82.7292 1.0652 82.8437C0.648877 83.0243 0.331682 83.0484 0.11361 82.9159C-0.0489529 82.8196 -0.0370595 82.7573 0.149293 82.7292L72.3926 73.0516C73.0112 72.9673 73.2808 72.612 73.2015 71.9857L70.5906 51.7995C70.4676 50.856 70.7115 50.7476 71.3221 51.4743C80.3186 62.1776 88.8412 72.3932 96.89 82.121C97.0923 82.3679 96.9852 82.5185 96.8127 82.7292Z" fill="#BF9F52"/>
<path d="M109 50.56C115.35 46.76 118.86 35.56 120.83 30.03L124.44 19.24C124.503 19.0481 124.627 18.8817 124.793 18.7656C124.958 18.6495 125.157 18.5898 125.359 18.5954C125.561 18.601 125.756 18.6716 125.914 18.7967C126.073 18.9219 126.187 19.0948 126.24 19.29C127.673 24.5233 129.607 29.5667 132.04 34.42C132.074 34.4869 132.122 34.5459 132.18 34.5932C132.239 34.6406 132.306 34.6752 132.379 34.695C132.451 34.7148 132.527 34.7192 132.601 34.708C132.675 34.6968 132.747 34.6702 132.81 34.63L139.79 30.24C140.157 30.0067 140.403 30.0967 140.53 30.51C140.56 30.61 133.8 35.45 133.05 36.1C132.79 36.3267 132.72 36.6 132.84 36.92C134.39 41.09 136.61 47.33 140.34 49.84C140.593 50.0067 140.57 50.1 140.27 50.12L130.04 50.74C129.92 50.7457 129.802 50.7072 129.709 50.6319C129.616 50.5565 129.553 50.4495 129.533 50.3311C129.514 50.2127 129.538 50.0912 129.602 49.9897C129.666 49.8881 129.765 49.8135 129.88 49.78C130.307 49.66 130.693 49.5533 131.04 49.46C131.687 49.2933 131.907 48.89 131.7 48.25L129.04 40.23C129.011 40.1445 128.964 40.0663 128.902 40.0008C128.841 39.9353 128.765 39.8841 128.681 39.8508C128.597 39.8175 128.507 39.8028 128.417 39.8079C128.327 39.8129 128.24 39.8375 128.16 39.88C122.99 42.63 118.39 47.38 114.21 49.95C112.723 50.8567 110.987 51.06 109 50.56ZM123.16 29.55L116.78 44.04C116.748 44.1176 116.741 44.2037 116.76 44.2859C116.778 44.3681 116.822 44.4422 116.884 44.4976C116.946 44.5531 117.024 44.5871 117.105 44.5947C117.187 44.6023 117.269 44.5831 117.34 44.54C119.82 43.0667 122.37 41.4833 124.99 39.79C128.76 37.36 125.38 32.25 123.83 29.51C123.797 29.4494 123.747 29.3998 123.687 29.3666C123.627 29.3335 123.558 29.3181 123.488 29.3223C123.419 29.3264 123.351 29.3499 123.293 29.3902C123.235 29.4304 123.189 29.4857 123.16 29.55Z" fill="#BF9F52"/>
<path d="M150.373 21.6436C149.52 21.359 149.093 20.9622 149.093 20.4531C149.093 19.929 149.714 19.667 150.957 19.667H152.282L152.956 19.6895L154.955 19.7119C157.681 19.7119 159.32 19.7793 159.874 19.9141C160.428 20.0339 160.705 20.3184 160.705 20.7676C160.705 21.0671 160.256 21.4414 159.358 21.8906C158.459 22.3249 157.928 22.9388 157.763 23.7324C157.419 25.3496 157.246 29.5648 157.246 36.3779C157.246 43.1911 157.381 46.8298 157.651 47.2939C158.04 47.9678 159.545 48.3047 162.165 48.3047C164.801 48.3047 166.553 48.0951 167.421 47.6758C168.305 47.2565 169.166 46.388 170.004 45.0703C170.858 43.7376 171.457 43.0713 171.801 43.0713C172.355 43.0713 172.632 43.5355 172.632 44.4639C172.632 47.6982 172.205 49.6748 171.352 50.3936C170.843 50.8278 168.35 51.0449 163.872 51.0449H161.873L161.199 51.0225H159.874C152.687 51.0225 149.093 50.723 149.093 50.124C149.093 49.7347 149.482 49.3079 150.261 48.8438C151.055 48.3796 151.586 47.6833 151.856 46.7549C152.125 45.8265 152.26 42.8766 152.26 37.9053L152.35 28.4492C152.35 25.1699 152.238 23.2832 152.013 22.7891C151.788 22.2949 151.242 21.9131 150.373 21.6436ZM183.948 49.9668C183.948 49.6224 184.45 49.1956 185.453 48.6865C186.456 48.1624 187.07 47.3164 187.295 46.1484C187.519 44.9655 187.631 41.1022 187.631 34.5586C187.631 28 187.504 24.3464 187.25 23.5977C187.01 22.849 186.104 22.4746 184.532 22.4746C182.96 22.4746 181.822 22.6693 181.118 23.0586C180.414 23.4479 179.823 24.0169 179.343 24.7656C178.355 26.293 177.779 27.0566 177.614 27.0566C176.91 27.0566 176.558 26.6224 176.558 25.7539V25.0801C176.558 22.0104 176.91 20.2959 177.614 19.9365C177.883 19.8018 181.792 19.7344 189.339 19.7344L198.57 19.7568C199.064 19.7568 199.566 19.7493 200.075 19.7344L201.557 19.6895C202.321 19.6895 202.83 19.8766 203.085 20.251C203.489 20.8649 203.691 22.4072 203.691 24.8779C203.691 26.1507 203.489 26.7871 203.085 26.7871C202.531 26.7871 201.939 26.2555 201.31 25.1924C200.681 24.1143 200.007 23.3805 199.289 22.9912C198.57 22.5869 197.402 22.3848 195.785 22.3848C194.168 22.3848 193.209 22.7516 192.91 23.4854C192.625 24.2191 192.483 28.0524 192.483 34.9854C192.483 41.9033 192.565 45.7891 192.73 46.6426C192.895 47.4961 193.247 48.1475 193.786 48.5967C193.951 48.7314 194.34 48.9486 194.954 49.248C195.583 49.5475 195.897 49.8245 195.897 50.0791C195.897 50.723 195.381 51.0449 194.347 51.0449H192.865L188.463 50.9551C185.453 50.9551 183.948 50.6257 183.948 49.9668ZM222.06 19.8018C223.033 19.8018 223.52 20.0413 223.52 20.5205C223.52 20.8949 223.115 21.2767 222.307 21.666C221.513 22.0553 220.996 22.5645 220.757 23.1934C220.517 23.8223 220.398 26.3005 220.398 30.6279V31.6387L220.42 32.6494V33.6602L220.398 34.1543C220.383 34.4987 220.375 34.8431 220.375 35.1875L220.33 36.1982L220.308 37.2314V39.2754L220.33 40.8252L220.375 42.8691L220.42 43.8799C220.435 44.2243 220.442 44.5537 220.442 44.8682C220.442 46.5752 220.667 47.7207 221.116 48.3047C221.356 48.6191 221.857 48.9111 222.621 49.1807C223.4 49.4502 223.789 49.7721 223.789 50.1465C223.789 50.7754 223.31 51.0898 222.352 51.0898H221.363L220.847 51.0674C220.517 51.0524 220.18 51.0449 219.836 51.0449L218.825 51C218.496 50.985 218.159 50.9775 217.815 50.9775L215.815 51.0225C213.225 51.0225 211.93 50.7604 211.93 50.2363C211.93 49.832 212.371 49.4277 213.255 49.0234C214.138 48.6191 214.677 48.1475 214.872 47.6084C215.261 46.5303 215.456 43.805 215.456 39.4326V38.4219L215.434 36.917C215.434 36.5726 215.434 36.2282 215.434 35.8838L215.456 35.3896C215.471 35.0452 215.479 34.7008 215.479 34.3564L215.523 33.3457C215.538 33.0013 215.546 32.4922 215.546 31.8184L215.523 30.8076L215.501 30.291L215.479 28.7637C215.479 26.0534 215.276 24.1816 214.872 23.1484C214.633 22.5495 214.191 22.1377 213.547 21.9131C212.394 21.5088 211.817 21.1195 211.817 20.7451C211.817 20.1462 212.97 19.8467 215.276 19.8467L216.242 19.8691L216.736 19.8916H218.174L221.071 19.8018H222.06ZM257.543 31.6611C257.543 27.7979 257.401 25.3421 257.117 24.2939C256.832 23.2308 256.39 22.3848 255.791 21.7559C255.207 21.112 254.915 20.6478 254.915 20.3633C254.915 19.974 256.128 19.7793 258.554 19.7793C260.995 19.7793 262.417 19.8916 262.822 20.1162C263.226 20.3408 263.428 20.6927 263.428 21.1719C263.428 21.4115 262.986 21.8083 262.103 22.3623C261.22 22.9163 260.673 23.5452 260.463 24.249C260.254 24.9528 260.149 27.9326 260.149 33.1885C260.149 38.4294 260.067 41.6488 259.902 42.8467C259.737 44.0446 259.273 45.2949 258.509 46.5977C257.761 47.8854 256.57 48.986 254.938 49.8994C253.321 50.7979 251.397 51.2471 249.165 51.2471H248.2C243.513 51.2471 240.144 49.8395 238.092 47.0244C237.239 45.8714 236.7 44.6735 236.475 43.4307C236.25 42.1729 236.138 38.7812 236.138 33.2559C236.138 27.7155 235.973 24.4512 235.644 23.4629C235.479 22.9538 234.978 22.4896 234.139 22.0703C233.316 21.651 232.904 21.2093 232.904 20.7451C232.904 20.0713 234.259 19.7344 236.969 19.7344H239.552C242.038 19.7344 243.281 20.0413 243.281 20.6553C243.281 20.79 242.944 21.1644 242.27 21.7783C241.596 22.3923 241.184 23.1335 241.035 24.002C240.9 24.7656 240.832 27.1989 240.832 31.3018C240.832 31.7061 240.832 32.1328 240.832 32.582C240.832 32.9564 240.832 33.3232 240.832 33.6826C240.832 37.9202 240.915 40.6305 241.08 41.8135C241.708 46.4704 244.561 48.7988 249.637 48.7988C252.857 48.7988 255.155 47.249 256.533 44.1494C257.206 42.637 257.543 38.6165 257.543 32.0879C257.543 31.9531 257.543 31.8109 257.543 31.6611ZM291.972 25.0576C291.972 26.5101 291.657 27.2363 291.028 27.2363C290.399 27.2363 289.725 26.5924 289.007 25.3047C288.303 24.0169 287.434 23.0661 286.401 22.4521C285.383 21.8382 284.065 21.5312 282.448 21.5312C280.831 21.5312 279.521 21.958 278.517 22.8115C277.514 23.6501 277.013 24.8255 277.013 26.3379C277.013 27.8353 277.701 29.153 279.079 30.291C279.932 31.0098 281.812 31.998 284.717 33.2559C287.637 34.5137 289.793 35.8688 291.185 37.3213C292.578 38.7588 293.274 40.668 293.274 43.0488C293.274 45.4297 292.293 47.3763 290.332 48.8887C288.37 50.401 285.885 51.1572 282.875 51.1572H282.044C280.936 51.1572 279.76 51.015 278.517 50.7305C277.29 50.446 276.301 50.2438 275.553 50.124C274.819 49.9893 274.28 49.847 273.935 49.6973C273.067 49.293 272.633 48.11 272.633 46.1484V45.3848C272.633 43.3783 273.089 42.375 274.003 42.375C274.407 42.375 274.946 43.0563 275.62 44.4189C276.309 45.7816 276.96 46.71 277.574 47.2041C279.116 48.432 280.898 49.0459 282.92 49.0459C284.956 49.0459 286.484 48.5817 287.502 47.6533C288.535 46.71 289.052 45.6842 289.052 44.5762C289.052 43.4531 288.894 42.5472 288.58 41.8584C288.265 41.1696 287.696 40.5033 286.873 39.8594C286.049 39.2005 284.2 38.2197 281.325 36.917C278.45 35.5993 276.459 34.4089 275.35 33.3457C273.718 31.7734 272.902 29.7744 272.902 27.3486C272.902 24.9229 273.846 22.9912 275.732 21.5537C277.619 20.1162 279.917 19.3975 282.628 19.3975C283.751 19.3975 285.054 19.5472 286.536 19.8467C288.018 20.1312 289.112 20.2734 289.815 20.2734C290.534 20.2734 291.073 20.5055 291.432 20.9697C291.792 21.4339 291.972 22.7965 291.972 25.0576Z" fill="#BF9F52"/>
<path d="M282.859 76.3125C283.005 76.3125 284.016 74.2917 285.891 70.25C287.766 66.1979 288.922 63.8385 289.359 63.1719C289.797 62.5052 290.302 62.0573 290.875 61.8281C291.448 61.5885 292.359 61.4688 293.609 61.4688C294.87 61.4688 295.5 61.7604 295.5 62.3438L295.125 62.8125L294.641 63.3281C294.328 63.7344 294.104 64.2083 293.969 64.75C293.844 65.2812 293.781 66.1615 293.781 67.3906C293.781 72.6198 293.917 76.4323 294.188 78.8281C294.292 79.7656 294.63 80.5052 295.203 81.0469C295.776 81.5781 296.062 81.9323 296.062 82.1094L295.672 82.3906C295.172 82.6198 294.188 82.7344 292.719 82.7344C291.25 82.7344 290.328 82.5417 289.953 82.1562L289.797 81.8125C289.797 81.5104 289.911 80.8906 290.141 79.9531C290.37 79.0052 290.484 78.0625 290.484 77.125C290.484 70.2917 290.266 66.875 289.828 66.875C289.609 66.875 288.615 68.9896 286.844 73.2188C285.073 77.4479 283.984 79.9323 283.578 80.6719C283.182 81.401 282.656 81.7656 282 81.7656C281.542 81.7656 280.286 79.2656 278.234 74.2656C276.193 69.2552 274.995 66.75 274.641 66.75C274.349 66.75 274.203 69.3073 274.203 74.4219C274.203 76.6927 274.24 78.0885 274.312 78.6094C274.385 79.1302 274.505 79.7552 274.672 80.4844C274.849 81.2135 274.938 81.6979 274.938 81.9375C274.938 82.1771 274.776 82.375 274.453 82.5312C274.13 82.6875 273.714 82.7656 273.203 82.7656H272.344C270.625 82.7656 269.766 82.5469 269.766 82.1094C269.766 81.8906 270.057 81.5312 270.641 81.0312C271.234 80.5208 271.578 80.0833 271.672 79.7188C271.776 79.3438 271.911 77.4688 272.078 74.0938C272.245 70.7083 272.328 68.4115 272.328 67.2031C272.328 65.9948 272.255 65.1562 272.109 64.6875C271.964 64.2083 271.625 63.7083 271.094 63.1875C270.573 62.6667 270.312 62.2708 270.312 62C270.312 61.6667 271.276 61.5 273.203 61.5C273.943 61.5 274.583 61.6042 275.125 61.8125C275.667 62.0104 276.198 62.4948 276.719 63.2656C277.25 64.026 278.354 66.3906 280.031 70.3594C281.708 74.3281 282.651 76.3125 282.859 76.3125ZM317.625 64.5938V65.0781C317.625 65.9323 317.37 66.3594 316.859 66.3594C316.714 66.3594 316.375 66.0052 315.844 65.2969C315.323 64.5781 314.792 64.0677 314.25 63.7656C313.719 63.4635 313.026 63.3125 312.172 63.3125C311.328 63.3125 310.786 63.4062 310.547 63.5938C310.318 63.7812 310.151 64.1615 310.047 64.7344C309.953 65.3073 309.906 67.7917 309.906 72.1875C309.906 76.5833 309.979 79.1094 310.125 79.7656C310.281 80.4219 310.682 80.9792 311.328 81.4375C311.974 81.8958 312.297 82.276 312.297 82.5781C312.297 82.8698 311.807 83.0156 310.828 83.0156L310.297 83L309.266 82.9844C308.911 82.974 308.568 82.9688 308.234 82.9688L306.719 82.9531C305.396 82.9531 304.552 82.9219 304.188 82.8594C303.833 82.7865 303.656 82.5729 303.656 82.2188C303.656 82.0417 303.99 81.7396 304.656 81.3125C305.333 80.8854 305.755 80.3229 305.922 79.625C306.099 78.9167 306.188 76.2812 306.188 71.7188C306.188 67.1562 306.125 64.651 306 64.2031C305.833 63.6198 305.25 63.3281 304.25 63.3281C303.26 63.3281 302.495 63.4896 301.953 63.8125C301.411 64.125 300.891 64.6562 300.391 65.4062C299.891 66.1562 299.432 66.5312 299.016 66.5312C298.703 66.5312 298.547 66.2448 298.547 65.6719V65.2031C298.547 62.9635 298.74 61.7083 299.125 61.4375C299.271 61.3333 302.349 61.2812 308.359 61.2812L315.797 61.25C316.578 61.25 317.078 61.4531 317.297 61.8594C317.516 62.2656 317.625 63.1771 317.625 64.5938ZM326.75 62.9844C326.281 62.9844 325.995 63.1615 325.891 63.5156C325.828 63.7344 325.797 64.7188 325.797 66.4688V69.5C325.797 70.1458 325.854 70.5469 325.969 70.7031C326.083 70.849 326.438 70.9219 327.031 70.9219H327.688L327.828 70.9062L328.766 70.8594C328.859 70.849 328.948 70.8438 329.031 70.8438C330.031 70.8438 330.87 70.474 331.547 69.7344C332.224 68.9948 332.562 68.099 332.562 67.0469V66.625C332.562 65.5521 332.193 64.6823 331.453 64.0156C330.724 63.3385 329.828 63 328.766 63L328.484 62.9688L328.078 62.9531H327.141C326.974 62.974 326.844 62.9844 326.75 62.9844ZM328.625 72.5312H327.281C326.479 72.5312 326.026 72.6406 325.922 72.8594C325.828 73.0781 325.781 73.7396 325.781 74.8438V79.3281C325.781 80.2969 325.896 80.8906 326.125 81.1094C326.365 81.3177 327.021 81.4219 328.094 81.4219H329.016C330.391 81.4219 331.505 81.0625 332.359 80.3438C333.214 79.6146 333.641 78.6562 333.641 77.4688V76.6562C333.641 75.375 333.172 74.3698 332.234 73.6406C331.297 72.901 330.094 72.5312 328.625 72.5312ZM328.266 61.2812C331.974 61.2812 334.354 62.2552 335.406 64.2031C335.781 64.8906 335.969 65.6823 335.969 66.5781C335.969 67.4635 335.755 68.2448 335.328 68.9219C334.911 69.599 334.536 70.0729 334.203 70.3438C333.88 70.6042 333.547 70.8385 333.203 71.0469C332.87 71.2448 332.703 71.375 332.703 71.4375C332.703 71.5 333.12 71.7448 333.953 72.1719C334.797 72.5885 335.464 73.0833 335.953 73.6562C336.828 74.6979 337.266 75.7708 337.266 76.875V77.2812C337.266 79.1146 336.516 80.5729 335.016 81.6562C334.474 82.0521 333.714 82.401 332.734 82.7031C331.766 82.9948 330.609 83.1406 329.266 83.1406H327.609L327.203 83.125C326.932 83.1146 326.656 83.1094 326.375 83.1094L325.969 83.0938C325.698 83.0833 325.427 83.0781 325.156 83.0781L324.75 83.0625C324.479 83.0521 324.208 83.0469 323.938 83.0469H322.734C320.922 83.0469 320.016 82.875 320.016 82.5312C320.016 82.1771 320.292 81.849 320.844 81.5469C321.406 81.2344 321.771 80.7083 321.938 79.9688C322.115 79.2188 322.203 77.4792 322.203 74.75V69.6094L322.172 67.9844C322.161 67.7135 322.156 67.0677 322.156 66.0469C322.156 65.026 322.057 64.3125 321.859 63.9062C321.672 63.4896 321.292 63.1458 320.719 62.875C320.146 62.6042 319.859 62.3646 319.859 62.1562C319.859 61.8542 320.005 61.651 320.297 61.5469C320.589 61.4323 321.484 61.375 322.984 61.375L326.609 61.2812H328.266Z" fill="#BF9F52"/>
</svg>
